<svg xmlns:xlink="http://www.w3.org/1999/xlink" xmlns="http://www.w3.org/2000/svg" width="960" height="238" viewBox="0 0 960 238" fill="none">
<path fill-rule="evenodd" clip-rule="evenodd" d="M112.52 82.6263C112.52 96.1781 104.203 106.973 92.1436 110.681C86.2797 112.484 80.6557 117.383 80.6557 124.157V153.166C80.6557 159.766 86.1515 165.471 93.1274 164.627C134.307 159.645 165.392 125.491 165.392 83.1179C165.392 37.2247 127.934 0 81.7003 0H12.2423C5.48108 0 0 5.41128 0 12.0864V40.1129C0 46.7881 5.48106 52.1993 12.2423 52.1993H81.7003C98.7214 52.1993 112.52 65.822 112.52 82.6263ZM40.6302 78.6458H12.2423C5.48106 78.6458 0 84.0571 0 90.7322V225.914C0 232.589 5.48106 238 12.2423 238H40.6302C47.3914 238 52.8725 232.589 52.8725 225.914V90.7322C52.8725 84.0571 47.3914 78.6458 40.6302 78.6458ZM682.888 78.6458H654.501C647.739 78.6458 642.258 84.0571 642.258 90.7322V225.914C642.258 232.589 647.739 238 654.501 238H682.888C689.65 238 695.131 232.589 695.131 225.914V90.7322C695.131 84.0571 689.65 78.6458 682.888 78.6458ZM233.308 0H205.418C198.656 0 193.175 5.41129 193.175 12.0864V225.914C193.175 232.589 198.656 238 205.418 238H318.615C323.043 238 326.679 235.813 328.497 232.573C330.332 229.301 330.198 225.148 327.484 221.582C326.863 220.765 326.202 219.911 325.5 219.02C323.983 217.093 320.938 213.034 319.381 210.769C315.289 204.815 312.674 200.027 311.016 196.471C308.681 191.461 303.562 187.275 297.587 187.275H253.712C249.204 187.275 245.55 183.668 245.55 179.218V12.0864C245.55 5.41128 240.069 0 233.308 0ZM695.131 40.1129V12.0864C695.131 5.41129 689.65 8.52483e-06 682.888 8.16462e-06L491.198 0C484.436 0 478.955 5.41128 478.955 12.0864V40.1129C478.955 46.7881 484.436 52.1994 491.198 52.1994H552.445C556.953 52.1994 560.607 55.8069 560.607 60.257V225.914C560.607 232.589 566.088 238 572.849 238H601.237C607.998 238 613.479 232.589 613.479 225.914V60.257C613.479 55.8069 617.133 52.1994 621.641 52.1994H682.888C689.65 52.1994 695.131 46.7881 695.131 40.1129ZM841.457 238C906.926 238 960 185.602 960 120.966C960 56.3301 906.926 3.9323 841.457 3.9323C775.987 3.9323 722.914 56.3301 722.914 120.966C722.914 185.602 775.987 238 841.457 238ZM907.128 120.966C907.128 156.773 877.726 185.801 841.457 185.801C805.188 185.801 775.786 156.773 775.786 120.966C775.786 85.159 805.188 56.1316 841.457 56.1316C877.726 56.1316 907.128 85.159 907.128 120.966ZM368.232 0H339.844C333.083 0 327.602 5.41127 327.602 12.0864V154.391C327.602 200.902 373.469 238 429.217 238C484.937 238 531.828 200.925 531.828 154.391V89.7491C531.828 83.074 526.347 77.6627 519.586 77.6627H491.198C484.436 77.6627 478.955 83.074 478.955 89.7491V148.492C478.955 170.413 457.804 188.75 429.715 188.75C401.625 188.75 380.474 170.413 380.474 148.492V12.0864C380.474 5.41128 374.993 0 368.232 0Z" fill="#4214C4"/>
</svg>